<?xml version="1.0" encoding="UTF-8"?>
<svg id="Layer_1" data-name="Layer 1" xmlns="http://www.w3.org/2000/svg" viewBox="0 0 1500 1500">
  <defs>
    <style>
      .cls-1 {
        letter-spacing: 0em;
      }

      .cls-2 {
        font-family: Gilroy-Bold, Gilroy;
        font-weight: 700;
      }

      .cls-3 {
        letter-spacing: -.01em;
      }

      .cls-3, .cls-4, .cls-5 {
        fill: #ed1e79;
      }

      .cls-3, .cls-5 {
        font-size: 201.54px;
      }

      .cls-6 {
        letter-spacing: 0em;
      }

      .cls-7 {
        letter-spacing: -.02em;
      }

      .cls-4, .cls-8 {
        stroke-width: 0px;
      }

      .cls-9 {
        letter-spacing: -.02em;
      }

      .cls-10 {
        font-family: Gilroy-Semibold, Gilroy;
        font-size: 53.74px;
        font-weight: 600;
      }

      .cls-10, .cls-8 {
        fill: #2b5aa6;
      }

      .cls-11 {
        letter-spacing: .02em;
      }

      .cls-12 {
        letter-spacing: 0em;
      }

      .cls-13 {
        letter-spacing: 0em;
      }

      .cls-14 {
        fill: #000;
        font-size: 92.87px;
      }

      .cls-15 {
        letter-spacing: 0em;
      }

      .cls-16 {
        letter-spacing: 0em;
      }

      .cls-17 {
        letter-spacing: -.02em;
      }

      .cls-18 {
        letter-spacing: -.01em;
      }

      .cls-19 {
        letter-spacing: -.02em;
      }
    </style>
  </defs>
  <g>
    <path class="cls-4" d="M283.75,579.37v103.92c11.5-4.6,29.6-13.49,47.36-30.26,17.15-16.19,26.92-33.06,32.23-44.07-6.58-9.87-13.15-19.73-19.73-29.6h-59.85Z"/>
    <polygon class="cls-8" points="388.99 643.83 401.49 703.68 432.07 703.68 388.99 643.83"/>
    <path class="cls-4" d="M283.75,933.23h79.58v-157.85c-4.05-5.71-9.21-11.84-15.79-17.76-23.22-20.89-49.97-26.39-63.8-28.12v203.73Z"/>
    <path class="cls-4" d="M480.91,579.37v143.71c12.63,7.89,30.82,21.28,47.85,42.42,16.85,20.92,26.04,41.31,31.08,55.25-.13-80.14-.26-160.28-.39-240.42-26.18-.32-52.36-.64-78.54-.96Z"/>
    <g>
      <path class="cls-8" d="M453.78,905.61c0-43.66,35.39-79.05,79.05-79.05,4.9,0,9.69.45,14.35,1.3-10.55-29.93-31.02-65.52-70.71-88.01-48.07-27.24-96.88-19.71-113.13-16.44,8.11-4.38,16.22-8.77,24.34-13.15l-16.44-78.93c-11.06,14.77-27.46,33.41-50.64,50.97-16.73,12.67-32.82,21.62-46.37,27.95,18.69,2.17,47.41,8.53,74.67,28.33,10.08,7.32,22.26,16.37,31.56,32.51,8.66,15.05,8.07,24.55,14.8,50.64,6.72,26.06,10.08,39.1,17.43,51.63,10.54,17.98,26.19,30.25,41.37,38.63-.17-2.11-.26-4.24-.26-6.39Z"/>
      <path class="cls-8" d="M558.35,880.94c-.2-3.49-1.13-16.3-5.3-33.33-6.33-2.21-13.14-3.41-20.22-3.41-33.92,0-61.41,27.5-61.41,61.41,0,5.31.67,10.45,1.94,15.37,9.77,3.79,18.06,6.01,22.84,7.31,23.67,6.45,44.15,6.13,57.22,4.93,2.92-11.77,6.23-30.07,4.93-52.29ZM526.12,878.96c-4.81,0-8.71-3.9-8.71-8.71s3.9-8.71,8.71-8.71,8.71,3.9,8.71,8.71-3.9,8.71-8.71,8.71Z"/>
    </g>
  </g>
  <text class="cls-2" transform="translate(588.28 721.62)"><tspan class="cls-5" x="0" y="0">NOE</tspan><tspan class="cls-3" x="402.06" y="0">L</tspan><tspan class="cls-5" x="496.79" y="0">S</tspan><tspan class="cls-14" x="614.28" y="0"> </tspan><tspan class="cls-14"><tspan x="0" y="111.45">F</tspan><tspan class="cls-18" x="48.2" y="111.45">I</tspan><tspan class="cls-12" x="72.07" y="111.45">S</tspan><tspan class="cls-13" x="125.75" y="111.45">H DELIVE</tspan><tspan class="cls-7" x="505.21" y="111.45">R</tspan><tspan x="560.38" y="111.45">Y</tspan></tspan></text>
  <text class="cls-10" transform="translate(594.32 935.98)"><tspan x="0" y="0">F</tspan><tspan class="cls-17" x="27.84" y="0">r</tspan><tspan class="cls-9" x="44.98" y="0">e</tspan><tspan class="cls-15" x="75.18" y="0">s</tspan><tspan x="99.63" y="0">h F</tspan><tspan class="cls-16" x="171.59" y="0">i</tspan><tspan class="cls-15" x="183.95" y="0">s</tspan><tspan x="208.4" y="0">h, </tspan><tspan class="cls-9" x="266.76" y="0">S</tspan><tspan x="296.91" y="0">wi</tspan><tspan class="cls-11" x="350.8" y="0">f</tspan><tspan x="369.24" y="0">t Deli</tspan><tspan class="cls-19" x="497.94" y="0">v</tspan><tspan x="525.07" y="0">e</tspan><tspan class="cls-6" x="556.35" y="0">r</tspan><tspan class="cls-1" x="575.26" y="0">y</tspan></text>
</svg>